<svg xmlns="http://www.w3.org/2000/svg" width="16" height="16" fill="none"><path fill="#838383" d="M5.33 4.196h5.332a.761.761 0 1 1 0 1.523H5.33a.762.762 0 1 1 0-1.523M2.834 8.004a.76.76 0 0 0 .761.761h8.804a.761.761 0 1 0 0-1.523H3.594a.76.76 0 0 0-.761.762m8.59 3.046a.76.76 0 0 0-.761-.762H5.33a.762.762 0 0 0 0 1.524h5.33a.76.76 0 0 0 .762-.762M.762 5.064a.76.76 0 0 0 .761-.761v-2.01a.76.76 0 0 1 .762-.762h2.018a.762.762 0 1 0 0-1.523H2.285A2.285 2.285 0 0 0 0 2.292V4.31a.76.76 0 0 0 .762.762zM13.708 0H11.69a.761.761 0 1 0 0 1.523h2.018a.76.76 0 0 1 .761.762v2.018a.761.761 0 1 0 1.523 0v-2.01A2.284 2.284 0 0 0 13.708.007zm1.523 10.92a.76.76 0 0 0-.762.762V13.7a.76.76 0 0 1-.761.762H11.69a.762.762 0 1 0 0 1.523h2.018a2.284 2.284 0 0 0 2.284-2.285v-2.01a.76.76 0 0 0-.761-.762zM4.303 14.478H2.285a.76.76 0 0 1-.762-.762v-2.018a.761.761 0 1 0-1.523 0v2.018A2.284 2.284 0 0 0 2.285 16h2.018a.762.762 0 1 0 0-1.523"/></svg>
