<svg xmlns="http://www.w3.org/2000/svg" width="13" height="13" fill="none"><path fill="#fff" d="M6.5 4.76a.903.903 0 1 0 0-1.806.903.903 0 0 0 0 1.805M7.25 6.33v2.976a.751.751 0 0 1-1.501 0V6.33a.751.751 0 1 1 1.502 0"/><path fill="#fff" d="M6.5 0a6.5 6.5 0 1 0 0 13 6.5 6.5 0 0 0 0-13m3.779 10.279a5.347 5.347 0 0 1-7.59.032 5.344 5.344 0 0 1 .032-7.59 5.344 5.344 0 1 1 7.558 7.558"/><path fill="#fff" d="M6.5 0a6.5 6.5 0 1 0 0 13 6.5 6.5 0 0 0 0-13m3.779 10.279a5.347 5.347 0 0 1-7.59.032 5.344 5.344 0 0 1 .032-7.59 5.344 5.344 0 1 1 7.558 7.558"/></svg>
