<svg xmlns="http://www.w3.org/2000/svg" width="611" height="134" fill="none"><path fill="url(#a)" d="M100.37 86.024c-.132-.132-.285-.228-.425-.347 14.595-21.311 12.45-50.723-6.465-69.636C83.137 5.698 69.386 0 54.76 0 40.134 0 26.383 5.698 16.04 16.039 5.697 26.382 0 40.133 0 54.761s5.696 28.376 16.04 38.72 24.093 16.04 38.72 16.04c11.192 0 21.866-3.346 30.898-9.547.117.139.212.288.342.419l30.638 30.638c2.676 2.675 7.053 2.675 9.728 0l4.642-4.642c2.676-2.676 2.676-7.052 0-9.728zm-13.797.55C78.075 95.07 66.778 99.75 54.761 99.75c-12.02 0-23.315-4.68-31.813-13.178S9.77 66.778 9.77 54.761c0-12.018 4.68-23.315 13.178-31.813S42.742 9.77 54.761 9.77c12.017 0 23.314 4.681 31.812 13.178 17.539 17.544 17.54 46.085 0 63.625"/><circle cx="54.643" cy="54.643" r="45.257" fill="url(#b)"/><path fill="#fff" d="M27.264 54.593c0-15.373 12.463-27.836 27.836-27.836 7.172 0 13.71 2.71 18.648 7.17a.4.4 0 0 1 .05.539L55.44 58.754a.405.405 0 0 1-.53.104l-12.47-7.413a1.214 1.214 0 0 0-1.663.423l-3.721 6.26a1.214 1.214 0 0 0 .422 1.663l19.318 11.484a1.213 1.213 0 0 0 1.588-.312l27.579-36.489a1.21 1.21 0 0 0-.031-1.503l-1.825-2.218c-6.878-8.36-17.32-13.706-29.007-13.706-20.736 0-37.546 16.81-37.546 37.546S34.364 92.14 55.1 92.14s37.546-16.81 37.546-37.546c0-4.564-.817-8.947-2.314-13.004-.217-.587-.991-.688-1.369-.189L83.069 49.2a2.1 2.1 0 0 0-.394 1.56q.259 1.88.26 3.834c0 15.374-12.462 27.836-27.835 27.836S27.264 69.967 27.264 54.593M154.388 62.207V6.136h20.078c18.854 0 32.239 11.59 32.239 27.995s-13.385 28.076-32.239 28.076zm11.998-10.937h9.631c10.692 0 18.282-7.1 18.282-17.14 0-9.957-7.59-17.058-18.282-17.058h-9.631zm96.044-34.28h-31.097v11.182h28.158v10.856h-28.158v12.324h31.097v10.855h-43.176V6.136h43.176zm55.55 0h-31.096v11.182h28.159v10.856h-28.159v12.324h31.096v10.855h-43.176V6.136h43.176zm12.375 45.217V6.136h25.221c12.161 0 21.139 7.835 21.139 18.935s-8.978 18.935-21.139 18.935h-13.223v18.201zm11.998-29.22h11.916c5.959 0 10.039-3.1 10.039-7.916s-4.08-7.917-10.039-7.917h-11.916zm88.324-15.996h-31.096v12.16h28.158v10.856h-28.158v22.2h-12.08V6.136h43.176zm52.953 45.216-3.592-8.815h-24.974l-3.591 8.815h-13.468l22.853-56.071h13.468l22.853 56.071zM459.226 43.19h16.65l-8.325-20.486zm48.234 19.017V6.136h12v25.71l22.686-25.71h14.609l-21.869 24.322 23.423 31.75H543.7l-17.224-23.18-7.016 7.508v15.671zm103.099-45.216h-31.091v11.181h28.153v10.856h-28.153v12.324h31.091v10.855h-43.171V6.136h43.171zM163.439 125.399V96.645h-10.91v-4.558h26.766v4.558h-10.959V125.4zm50.759-28.754h-19.541v9.504h17.65v4.558h-17.65v10.134h19.541v4.558h-24.487V92.087h24.487zm39.899-4.558-12.559 16.632 12.559 16.68h-5.964l-9.601-12.752-9.601 12.752h-5.867l12.558-16.631-12.558-16.68h5.915l9.601 12.752 9.65-12.753zm19.257 33.312V96.645h-10.91v-4.558h26.767v4.558h-10.959V125.4zm45.578 0V92.087h11.492c10.764 0 18.426 6.886 18.426 16.632s-7.662 16.68-18.426 16.68zm4.897-4.461h6.886c7.709 0 13.092-5.043 13.092-12.219 0-7.128-5.383-12.17-13.092-12.17h-6.886zm60.792-24.293H365.08v9.504h17.65v4.558h-17.65v10.134h19.541v4.558h-24.487V92.087h24.487zm20.26 28.754V96.645h-10.91v-4.558h26.767v4.558h-10.959V125.4zm50.76-28.754h-19.542v9.504h17.651v4.558h-17.651v10.134h19.542v4.558h-24.488V92.087h24.488zm27 29.336c-9.358 0-17.31-7.903-17.31-17.262 0-9.358 7.952-17.213 17.31-17.213 4.752 0 9.117 1.988 12.268 5.236l-3.442 3.298c-2.231-2.425-5.383-4.025-8.826-4.025-6.642 0-12.267 5.819-12.267 12.704 0 6.934 5.625 12.753 12.267 12.753 3.443 0 6.595-1.6 8.826-4.025l3.442 3.297c-3.151 3.201-7.516 5.237-12.268 5.237m31.304-.582V96.645h-10.911v-4.558H529.8v4.558h-10.955V125.4zm40.334.582c-9.36 0-17.314-7.903-17.314-17.262 0-9.358 7.954-17.213 17.314-17.213 9.354 0 17.213 7.855 17.213 17.213s-7.859 17.262-17.213 17.262m0-4.509c6.639 0 12.218-5.819 12.218-12.753 0-6.885-5.579-12.704-12.218-12.704-6.645 0-12.271 5.819-12.271 12.704 0 6.934 5.626 12.753 12.271 12.753m54.429-18.523c0 5.14-3.489 9.067-8.532 10.377l8.49 12.073h-5.627l-8.145-11.589h-7.663v11.589h-4.9V92.087h14.016c7.032 0 12.361 4.51 12.361 10.862m-21.477-6.304v12.607h8.437c4.799 0 8.05-2.375 8.05-6.303s-3.251-6.304-8.05-6.304z"/><defs><linearGradient id="a" x1="-27.154" x2="133.423" y1="-37.881" y2="137.781" gradientUnits="userSpaceOnUse"><stop stop-color="#9C8CF9"/><stop offset="1" stop-color="#458FF2"/></linearGradient><linearGradient id="b" x1="11.398" x2="99.9" y1="8.381" y2="94.871" gradientUnits="userSpaceOnUse"><stop stop-color="#ACA8FD"/><stop offset="1" stop-color="#77A8F3"/></linearGradient></defs></svg>