<svg xmlns="http://www.w3.org/2000/svg" width="199" height="199" fill="none"><path fill="url(#a)" d="M149.701 128.305c-.196-.197-.425-.34-.634-.517 21.768-31.786 18.57-75.655-9.641-103.863C123.999 8.497 103.489 0 81.676 0 59.858 0 39.348 8.498 23.923 23.922 8.495 39.35 0 59.86 0 81.675S8.495 124 23.925 139.426c15.426 15.429 35.934 23.924 57.75 23.924 16.692 0 32.612-4.991 46.084-14.239.174.207.315.43.51.624l45.697 45.697c3.99 3.991 10.518 3.991 14.508 0l6.924-6.924c3.991-3.99 3.991-10.518 0-14.508zm-20.578.818c-12.675 12.675-29.525 19.655-47.448 19.655-17.926 0-34.773-6.98-47.448-19.655S14.572 99.598 14.572 81.675s6.98-34.773 19.655-47.448c12.675-12.673 29.522-19.655 47.448-19.655 17.923 0 34.773 6.982 47.448 19.655 26.159 26.166 26.162 68.735 0 94.896"/><circle cx="81.5" cy="81.5" r="67.5" fill="url(#b)"/><path fill="#fff" d="M40.665 81.425c0-22.929 18.588-41.517 41.517-41.517 10.698 0 20.447 4.04 27.814 10.693.23.208.261.557.073.804L82.689 87.63a.604.604 0 0 1-.79.155L63.302 76.729a1.81 1.81 0 0 0-2.482.631l-5.55 9.337a1.81 1.81 0 0 0 .63 2.481l28.812 17.127a1.81 1.81 0 0 0 2.37-.464l41.133-54.424a1.81 1.81 0 0 0-.046-2.241l-2.722-3.308c-10.259-12.47-25.833-20.443-43.264-20.443-30.928 0-56 25.072-56 56s25.072 56 56 56 56-25.072 56-56a55.9 55.9 0 0 0-3.452-19.395c-.323-.876-1.478-1.027-2.041-.282l-8.792 11.632a3.14 3.14 0 0 0-.587 2.327q.387 2.803.389 5.718c0 22.93-18.588 41.517-41.517 41.517s-41.517-18.587-41.517-41.517"/><defs><linearGradient id="a" x1="-40.5" x2="199" y1="-56.5" y2="205.5" gradientUnits="userSpaceOnUse"><stop stop-color="#9C8CF9"/><stop offset="1" stop-color="#458FF2"/></linearGradient><linearGradient id="b" x1="17" x2="149" y1="12.5" y2="141.5" gradientUnits="userSpaceOnUse"><stop stop-color="#ACA8FD"/><stop offset="1" stop-color="#77A8F3"/></linearGradient></defs></svg>