<svg xmlns="http://www.w3.org/2000/svg" width="375" height="346" fill="none"><path fill="url(#a)" d="M237.701 128.305c-.196-.197-.425-.34-.634-.517 21.768-31.786 18.57-75.655-9.641-103.863C211.999 8.497 191.489 0 169.675 0c-21.816 0-42.326 8.498-57.75 23.922C96.495 39.35 88 59.86 88 81.675s8.495 42.324 23.925 57.751c15.426 15.429 35.934 23.924 57.75 23.924 16.692 0 32.612-4.991 46.084-14.239.174.207.315.43.51.624l45.697 45.697c3.99 3.991 10.518 3.991 14.508 0l6.924-6.924c3.991-3.99 3.991-10.518 0-14.508zm-20.578.818c-12.675 12.675-29.525 19.655-47.448 19.655-17.926 0-34.773-6.98-47.448-19.655s-19.655-29.525-19.655-47.448 6.98-34.773 19.655-47.448c12.675-12.673 29.522-19.655 47.448-19.655 17.923 0 34.773 6.982 47.448 19.655 26.159 26.166 26.162 68.735 0 94.896"/><circle cx="169.5" cy="81.5" r="67.5" fill="url(#b)"/><path fill="#fff" d="M128.665 81.425c0-22.929 18.588-41.517 41.517-41.517 10.698 0 20.447 4.04 27.814 10.693.23.208.261.557.073.804L170.69 87.63a.604.604 0 0 1-.79.155l-18.599-11.057a1.81 1.81 0 0 0-2.482.631l-5.55 9.337c-.511.86-.228 1.97.631 2.481l28.811 17.127a1.81 1.81 0 0 0 2.369-.464l41.134-54.424a1.81 1.81 0 0 0-.046-2.241l-2.722-3.308c-10.259-12.47-25.833-20.443-43.264-20.443-30.928 0-56 25.072-56 56s25.072 56 56 56 56-25.072 56-56a55.9 55.9 0 0 0-3.452-19.395c-.323-.876-1.478-1.027-2.041-.282l-8.792 11.632a3.14 3.14 0 0 0-.587 2.327q.387 2.803.389 5.718c0 22.93-18.588 41.517-41.517 41.517s-41.517-18.587-41.517-41.517M1.522 292.907V247H17.96c15.436 0 26.395 9.489 26.395 22.92s-10.959 22.987-26.395 22.987zm9.823-8.954h7.885c8.754 0 14.968-5.813 14.968-14.033 0-8.152-6.214-13.966-14.968-13.966h-7.885zm78.633-28.066h-25.46v9.155h23.054v8.887H64.518v10.091h25.46v8.887h-35.35V247h35.35zm45.481 0h-25.46v9.155h23.055v8.887h-23.055v10.091h25.46v8.887H100.11V247h35.349zm10.131 37.02V247h20.649c9.956 0 17.307 6.415 17.307 15.503s-7.351 15.503-17.307 15.503h-10.826v14.901zm9.823-23.922h9.756c4.879 0 8.22-2.54 8.22-6.482s-3.341-6.482-8.22-6.482h-9.756zm72.313-13.098h-25.459v9.957h23.054v8.887h-23.054v18.176h-9.89V247h35.349zm43.354 37.02-2.94-7.217h-20.448l-2.94 7.217h-11.026L252.436 247h11.026l18.711 45.907zm-19.98-15.57h13.632l-6.816-16.772zm39.491 15.57V247h9.824v21.049L318.988 247h11.962l-17.905 19.913 19.177 25.994H320.26l-14.101-18.978-5.744 6.148v12.83zM375 255.887h-25.455v9.155h23.05v8.887h-23.05v10.091H375v8.887h-35.345V247H375zM8.932 344.645v-23.542H0v-3.732h21.914v3.732h-8.972v23.542zm41.558-23.542H34.491v7.781h14.45v3.732h-14.45v8.297h16v3.732H30.44v-27.274h20.05zm32.666-3.732-10.282 13.617 10.282 13.657h-4.883l-7.86-10.441-7.86 10.441h-4.804l10.281-13.617-10.282-13.657h4.844l7.86 10.441 7.9-10.441zm15.767 27.274v-23.542H89.99v-3.732h21.915v3.732h-8.973v23.542zm37.315 0v-27.274h9.409c8.813 0 15.086 5.637 15.086 13.617 0 7.979-6.273 13.657-15.086 13.657zm4.009-3.653h5.638c6.312 0 10.719-4.129 10.719-10.004 0-5.836-4.407-9.965-10.719-9.965h-5.638zm49.772-19.889h-15.998v7.781h14.45v3.732h-14.45v8.297h15.998v3.732h-20.048v-27.274h20.048zm16.588 23.542v-23.542h-8.932v-3.732h21.914v3.732h-8.972v23.542zm41.558-23.542h-15.999v7.781h14.451v3.732h-14.451v8.297h15.999v3.732h-20.049v-27.274h20.049zm22.106 24.018c-7.662 0-14.173-6.471-14.173-14.133s6.511-14.093 14.173-14.093c3.891 0 7.464 1.628 10.044 4.287l-2.819 2.7c-1.826-1.985-4.406-3.295-7.225-3.295-5.439 0-10.044 4.764-10.044 10.401 0 5.677 4.605 10.441 10.044 10.441 2.819 0 5.399-1.31 7.225-3.295l2.819 2.699c-2.58 2.621-6.153 4.288-10.044 4.288m25.629-.476v-23.542h-8.933v-3.732h21.914v3.732h-8.97v23.542zm33.022.476c-7.663 0-14.175-6.471-14.175-14.133s6.512-14.093 14.175-14.093c7.659 0 14.093 6.431 14.093 14.093s-6.434 14.133-14.093 14.133m0-3.692c5.436 0 10.003-4.764 10.003-10.441 0-5.637-4.567-10.401-10.003-10.401-5.44 0-10.046 4.764-10.046 10.401 0 5.677 4.606 10.441 10.046 10.441m44.563-15.165c0 4.208-2.857 7.424-6.986 8.495l6.951 9.886h-4.606l-6.669-9.489h-6.274v9.489h-4.012v-27.274h11.475c5.757 0 10.121 3.692 10.121 8.893m-17.584-5.161v10.322h6.908c3.929 0 6.59-1.945 6.59-5.161s-2.661-5.161-6.59-5.161z"/><defs><linearGradient id="a" x1="47.5" x2="287" y1="-56.5" y2="205.5" gradientUnits="userSpaceOnUse"><stop stop-color="#9C8CF9"/><stop offset="1" stop-color="#458FF2"/></linearGradient><linearGradient id="b" x1="105" x2="237" y1="12.5" y2="141.5" gradientUnits="userSpaceOnUse"><stop stop-color="#ACA8FD"/><stop offset="1" stop-color="#77A8F3"/></linearGradient></defs></svg>