<svg xmlns="http://www.w3.org/2000/svg" width="10" height="10" fill="none"><path fill="#0073E6" fill-rule="evenodd" d="M3.451 1.36a3.9 3.9 0 0 1 2.51-.164c.83.224 1.566.719 2.093 1.408a.5.5 0 0 0 .085.087L6.65 2.7a.511.511 0 1 0 .007 1.022l2.55-.017a.51.51 0 0 0 .508-.527L9.635.496a.511.511 0 0 0-1.02.03l.034 1.193A4.94 4.94 0 0 0 6.227.209a4.9 4.9 0 0 0-3.168.207A4.95 4.95 0 0 0 .67 2.517a5.01 5.01 0 0 0 .757 6 4.93 4.93 0 0 0 2.836 1.435 4.9 4.9 0 0 0 3.118-.597 4.97 4.97 0 0 0 2.115-2.38.51.51 0 1 0-.941-.4c-.34.8-.93 1.465-1.68 1.892a3.9 3.9 0 0 1-2.47.473 3.9 3.9 0 0 1-2.248-1.138 3.987 3.987 0 0 1-.6-4.774A3.93 3.93 0 0 1 3.45 1.36" clip-rule="evenodd"/></svg>