<svg xmlns="http://www.w3.org/2000/svg" width="16" height="16" fill="none"><path fill="#fff" d="M0 4.8V1.6A1.6 1.6 0 0 1 1.6 0h3.2a.533.533 0 1 1 0 1.067H1.6a.534.534 0 0 0-.533.533v3.2A.533.533 0 1 1 0 4.8m4.8 10.133H1.6a.534.534 0 0 1-.533-.533v-3.2A.533.533 0 0 0 0 11.2v3.2A1.6 1.6 0 0 0 1.6 16h3.2a.533.533 0 0 0 0-1.067M14.4 0h-3.2a.533.533 0 0 0 0 1.067h3.2a.534.534 0 0 1 .533.533v3.2A.533.533 0 0 0 16 4.8V1.6A1.6 1.6 0 0 0 14.4 0m1.067 10.667a.53.53 0 0 0-.534.533v3.2a.534.534 0 0 1-.533.533h-3.2a.533.533 0 0 0 0 1.067h3.2a1.6 1.6 0 0 0 1.6-1.6v-3.2a.534.534 0 0 0-.533-.533m-4.8 2.666H5.333a1.6 1.6 0 0 1-1.6-1.6V4.267a1.6 1.6 0 0 1 1.6-1.6h5.334a1.6 1.6 0 0 1 1.6 1.6v7.466a1.6 1.6 0 0 1-1.6 1.6m-.534-3.2A.53.53 0 0 0 9.6 9.6H6.4a.533.533 0 1 0 0 1.067h3.2a.533.533 0 0 0 .533-.534m0-2.133a.53.53 0 0 0-.533-.533H6.4a.533.533 0 1 0 0 1.066h3.2A.533.533 0 0 0 10.133 8m0-2.133a.53.53 0 0 0-.533-.534H6.4a.533.533 0 1 0 0 1.067h3.2a.533.533 0 0 0 .533-.533" opacity=".3"/></svg>