<svg xmlns="http://www.w3.org/2000/svg" width="16" height="16" fill="none"><path fill="#838383" d="M7.829 4.923A3.08 3.08 0 0 0 4.752 8a3.08 3.08 0 0 0 3.077 3.076A3.08 3.08 0 0 0 10.905 8 3.08 3.08 0 0 0 7.83 4.923m0 4.923A1.85 1.85 0 0 1 5.982 8c0-1.019.828-1.846 1.847-1.846 1.018 0 1.846.827 1.846 1.846a1.85 1.85 0 0 1-1.846 1.846m7.12-.534A1.83 1.83 0 0 1 14.403 8c0-.497.194-.963.546-1.312l.528-.523a.616.616 0 0 0 .1-.745l-1.64-2.842a.615.615 0 0 0-.724-.277l-.604.196c-.493.16-1.012.109-1.465-.141a1.83 1.83 0 0 1-.897-1.167l-.177-.71a.6.6 0 0 0-.192-.325.6.6 0 0 0-.4-.154H6.182a.61.61 0 0 0-.593.478l-.177.71a1.83 1.83 0 0 1-.897 1.168c-.452.25-.973.302-1.464.142L2.446 2.3a.62.62 0 0 0-.723.278L.083 5.42c-.14.242-.1.548.1.745l.527.522c.353.35.547.816.547 1.312s-.194.963-.547 1.312l-.527.523a.616.616 0 0 0-.1.745l1.64 2.842a.616.616 0 0 0 .723.277l.605-.196a1.83 1.83 0 0 1 1.464.141c.453.252.77.666.897 1.167l.18.723A.615.615 0 0 0 6.19 16h3.282a.616.616 0 0 0 .597-.466l.18-.723c.126-.502.445-.916.897-1.167.453-.25.973-.3 1.465-.142l.605.197a.62.62 0 0 0 .723-.278l1.64-2.842a.615.615 0 0 0-.1-.745l-.527-.522zm-.866.873.19.189-1.154 2-.131-.043a3.09 3.09 0 0 0-2.441.235 3.1 3.1 0 0 0-1.494 1.946l-.064.256H6.668l-.064-.256a3.09 3.09 0 0 0-1.495-1.946 3.09 3.09 0 0 0-2.44-.235l-.132.043-1.154-2 .19-.189c.588-.581.911-1.358.911-2.185s-.323-1.604-.91-2.186l-.191-.189 1.154-2 .132.043a3.08 3.08 0 0 0 2.44-.235 3.1 3.1 0 0 0 1.495-1.945l.064-.257h2.32l.065.257c.206.824.75 1.533 1.494 1.945a3.1 3.1 0 0 0 2.44.235l.132-.042 1.154 2-.19.188A3.06 3.06 0 0 0 13.173 8c0 .827.322 1.604.91 2.185"/></svg>
